<?xml version="1.0" encoding="UTF-8" standalone="no"?>
<!-- Created with Inkscape (http://www.inkscape.org/) -->

<svg
   xmlns:dc="http://purl.org/dc/elements/1.1/"
   xmlns:cc="http://creativecommons.org/ns#"
   xmlns:rdf="http://www.w3.org/1999/02/22-rdf-syntax-ns#"
   xmlns:svg="http://www.w3.org/2000/svg"
   xmlns="http://www.w3.org/2000/svg"
   xmlns:sodipodi="http://sodipodi.sourceforge.net/DTD/sodipodi-0.dtd"
   xmlns:inkscape="http://www.inkscape.org/namespaces/inkscape"
   width="210mm"
   height="297mm"
   id="svg2"
   version="1.1"
   inkscape:version="0.48.4 r9939"
   sodipodi:docname="DimensionX.svg">
  <defs
     id="defs4" />
  <sodipodi:namedview
     id="base"
     pagecolor="#ffffff"
     bordercolor="#666666"
     borderopacity="1.0"
     inkscape:pageopacity="0.0"
     inkscape:pageshadow="2"
     inkscape:zoom="0.04"
     inkscape:cx="-3444.3103"
     inkscape:cy="-1256.9281"
     inkscape:document-units="px"
     inkscape:current-layer="layer1"
     showgrid="false"
     inkscape:window-width="1366"
     inkscape:window-height="714"
     inkscape:window-x="-4"
     inkscape:window-y="-4"
     inkscape:window-maximized="1"
     showborder="false"
     showguides="true"
     inkscape:guide-bbox="true">
    <sodipodi:guide
       orientation="1,0"
       position="0,1086.9242"
       id="guide3069" />
    <sodipodi:guide
       orientation="0,1"
       position="444.46713,1058.6399"
       id="guide3071" />
    <sodipodi:guide
       orientation="1,0"
       position="1850.5995,1058.6399"
       id="guide3073" />
    <sodipodi:guide
       orientation="0,1"
       position="1850.5995,-501.03567"
       id="guide3075" />
    <inkscape:grid
       type="xygrid"
       id="grid3077" />
  </sodipodi:namedview>
  <metadata
     id="metadata7">
    <rdf:RDF>
      <cc:Work
         rdf:about="">
        <dc:format>image/svg+xml</dc:format>
        <dc:type
           rdf:resource="http://purl.org/dc/dcmitype/StillImage" />
        <dc:title></dc:title>
      </cc:Work>
    </rdf:RDF>
  </metadata>
  <g
     inkscape:label="Ebene 1"
     inkscape:groupmode="layer"
     id="layer1">
    <path
       d="M 669.29367,721.27306 669.29367,606.69536 C 669.29367,589.15507 662.67693,574.01949 649.44346,561.28863 636.20998,548.55778 619.43732,542.19236 599.12548,542.19236 L 243.66819,542.19236 C 224.58737,542.19236 208.12247,548.55778 194.27348,561.28863 180.42449,574.01949 173.5,589.15507 173.5,606.69536 L 173.5,933.45401 C 173.5,950.9943 180.42449,966.12988 194.27348,978.86074 208.12247,991.59156 224.58737,997.95697 243.66819,997.95697 L 599.12548,997.95697 C 619.43732,997.95697 636.20998,991.59156 649.44346,978.86074 662.67693,966.12988 669.29367,950.9943 669.29367,933.45401 L 669.29367,818.8763 z"
       id="path3130"
       inkscape:connector-curvature="0" />
    <path
       d="M 1093.9959,1225.0791 1093.9959,1339.6569 C 1093.9959,1357.1972 1100.9204,1372.3327 1114.7694,1385.0636 1128.6183,1397.7944 1145.6987,1404.1598 1166.0106,1404.1598 L 1519.6214,1404.1598 C 1539.9332,1404.1598 1557.0136,1397.7944 1570.8626,1385.0636 1584.7116,1372.3327 1591.6361,1357.1972 1591.6361,1339.6569 L 1591.6361,1012.8982 C 1591.6361,994.22635 1584.7116,978.94925 1570.8626,967.06715 1557.0136,955.18505 1539.9332,949.24395 1519.6214,949.24395 L 1166.0106,949.24395 C 1145.6987,949.24395 1128.6183,955.32645 1114.7694,967.49155 1100.9204,979.65665 1093.9959,994.79215 1093.9959,1012.8982 L 1093.9959,1128.3247 z"
       id="path3128"
       inkscape:connector-curvature="0" />
    <path
       d="M 1093.9959,411.40034 1093.9959,525.97805 C 1093.9959,544.64997 1100.9204,560.35136 1114.7694,573.08222 1128.6183,585.81308 1145.6987,592.17851 1166.0106,592.17851 L 1519.6214,592.17851 C 1539.9332,592.17851 1557.0136,585.81308 1570.8626,573.08222 1584.7116,560.35136 1591.6361,544.64997 1591.6361,525.97805 L 1591.6361,200.91685 C 1591.6361,182.24493 1584.7116,166.54354 1570.8626,153.81268 1557.0136,141.08183 1539.9332,134.7164 1519.6214,134.7164 L 1166.0106,134.7164 C 1145.6987,134.7164 1128.6183,141.08183 1114.7694,153.81268 1100.9204,166.54354 1093.9959,182.24493 1093.9959,200.91685 L 1093.9959,313.79712 z"
       id="path3067"
       inkscape:connector-curvature="0" />
    <path
       d="M 490.87131,971.24265 V 983.11245 Q 490.87131,1035.656 514.05905,1082.0272 537.2468,1128.3985 585.0587,1163.0583 632.87059,1197.718 705.51184,1217.8175 778.15309,1237.9169 877.47053,1238.55 V 1311.6678 Q 877.47053,1329.7099 889.16697,1333.6665 900.86347,1337.623 917.68996,1324.6455 L 1078.5678,1200.8833 Q 1089.6487,1192.9701 1089.2383,1180.309 1089.2383,1167.9644 1078.5678,1160.0513 L 917.68996,1036.2891 Q 900.86347,1023.3114 889.16697,1027.268 877.47053,1031.2246 877.47053,1049.2667 V 1131.5638 Q 792.51718,1131.5638 727.87878,1117.9531 663.24038,1104.3424 618.7117,1081.0777 574.18303,1057.8129 548.94327,1026.0019 523.70352,994.19085 517.13707,957.79025 515.49546,949.24395 504.4146,949.24395 494.15453,949.24395 492.51292,957.79025 490.87131,965.07035 490.87131,971.24265 z"
       id="path3159"
       inkscape:connector-curvature="0" />
    <path
       d="M 492.23776,570.17991 V 558.31011 Q 492.23776,505.76651 515.4255,459.39531 538.61325,413.02401 586.42515,378.36421 634.23704,343.70451 706.87829,323.60501 779.51954,303.50561 878.83698,302.87251 V 229.75471 Q 878.83698,211.71261 890.53342,207.75601 902.22992,203.79951 919.05641,216.77701 L 1079.9342,340.53921 Q 1091.0151,348.45241 1090.6047,361.11351 1090.6047,373.45811 1079.9342,381.37121 L 919.05641,505.13341 Q 902.22992,518.11111 890.53342,514.15451 878.83698,510.19791 878.83698,492.15581 V 409.85871 Q 793.88363,409.85871 729.24523,423.46941 664.60683,437.08011 620.07815,460.34481 575.54948,483.60961 550.30972,515.42061 525.06997,547.23171 518.50352,583.63231 516.86191,592.17851 505.78105,592.17851 495.52098,592.17851 493.87937,583.63231 492.23776,576.35221 492.23776,570.17991 z"
       id="path3159-4"
       inkscape:connector-curvature="0" />
  </g>
</svg>
