<?xml version="1.0" encoding="UTF-8" standalone="no"?>
<!-- Created with Inkscape (http://www.inkscape.org/) -->

<svg
   xmlns:dc="http://purl.org/dc/elements/1.1/"
   xmlns:cc="http://creativecommons.org/ns#"
   xmlns:rdf="http://www.w3.org/1999/02/22-rdf-syntax-ns#"
   xmlns:svg="http://www.w3.org/2000/svg"
   xmlns="http://www.w3.org/2000/svg"
   xmlns:sodipodi="http://sodipodi.sourceforge.net/DTD/sodipodi-0.dtd"
   xmlns:inkscape="http://www.inkscape.org/namespaces/inkscape"
   width="210mm"
   height="297mm"
   id="svg2"
   version="1.1"
   inkscape:version="0.48.4 r9939"
   sodipodi:docname="LogicalLayoutSelect.svg">
  <defs
     id="defs4" />
  <sodipodi:namedview
     id="base"
     pagecolor="#ffffff"
     bordercolor="#666666"
     borderopacity="1.0"
     inkscape:pageopacity="0.0"
     inkscape:pageshadow="2"
     inkscape:zoom="0.22627417"
     inkscape:cx="1508.2581"
     inkscape:cy="114.8811"
     inkscape:document-units="px"
     inkscape:current-layer="layer1"
     showgrid="false"
     inkscape:window-width="1366"
     inkscape:window-height="714"
     inkscape:window-x="-4"
     inkscape:window-y="-4"
     inkscape:window-maximized="1"
     showborder="false"
     showguides="true"
     inkscape:guide-bbox="true">
    <sodipodi:guide
       orientation="1,0"
       position="0,1086.9242"
       id="guide3069" />
    <sodipodi:guide
       orientation="0,1"
       position="444.46713,1058.6399"
       id="guide3071" />
    <sodipodi:guide
       orientation="1,0"
       position="1850.5995,1058.6399"
       id="guide3073" />
    <sodipodi:guide
       orientation="0,1"
       position="1850.5995,-501.03567"
       id="guide3075" />
    <inkscape:grid
       type="xygrid"
       id="grid3077" />
  </sodipodi:namedview>
  <metadata
     id="metadata7">
    <rdf:RDF>
      <cc:Work
         rdf:about="">
        <dc:format>image/svg+xml</dc:format>
        <dc:type
           rdf:resource="http://purl.org/dc/dcmitype/StillImage" />
        <dc:title />
      </cc:Work>
    </rdf:RDF>
  </metadata>
  <g
     inkscape:label="Ebene 1"
     inkscape:groupmode="layer"
     id="layer1">
    <path
       d="M 1299.8504,-8.03125 C 1273.2719,-8.03125 1250.9514,-1.6683577 1232.8297,11.0625 1214.7081,23.793358 1205.6369,39.48433 1205.6369,58.15625 L 1205.6369,171.03125 1020.8083,171.03125 C 976.51081,171.03125 938.62314,182.36737 907.21221,205 875.80126,227.63263 860.10543,254.50513 860.10543,285.625 L 860.10543,725.25 649.88324,725.25 649.88324,610.6875 C 649.88324,593.14721 641.23354,578.01211 623.91726,565.28125 606.60096,552.5504 584.66074,546.1875 558.08226,546.1875 L 92.9437,546.1875 C 67.976033,546.1875 46.457147,552.5504 28.335442,565.28125 10.213739,578.01211 1.1427219,593.14721 1.1427219,610.6875 L 1.1427219,937.4375 C 1.1427219,954.97779 10.213739,970.11289 28.335442,982.84375 46.457147,995.57457 67.976033,1001.9375 92.9437,1001.9375 L 558.08226,1001.9375 C 584.66074,1001.9375 606.60096,995.57457 623.91726,982.84375 641.23354,970.11289 649.88324,954.97779 649.88324,937.4375 L 649.88324,822.875 860.10543,822.875 860.10543,1262.5 C 860.10543,1293.6199 875.6315,1320.4923 906.63973,1343.125 937.64794,1365.7576 975.7053,1377.0936 1020.8083,1377.0938 L 1205.6369,1377.0938 1205.6369,1491.6562 C 1205.6369,1509.1966 1214.7081,1524.3316 1232.8297,1537.0625 1250.9514,1549.7933 1273.2719,1556.1564 1299.8504,1556.1562 L 1762.5765,1556.1562 C 1789.155,1556.1564 1811.5166,1549.7933 1829.6383,1537.0625 1847.76,1524.3316 1856.7901,1509.1966 1856.7901,1491.6562 L 1856.7901,1164.9062 C 1856.7901,1146.2344 1847.76,1130.9446 1829.6383,1119.0625 1811.5166,1107.1804 1789.155,1101.25 1762.5765,1101.25 L 1299.8504,1101.25 C 1273.2719,1101.25 1250.9514,1107.3349 1232.8297,1119.5 1214.7081,1131.6651 1205.6369,1146.8003 1205.6369,1164.9062 L 1205.6369,1280.3125 1020.8083,1280.3125 C 1006.3109,1280.3125 998.63278,1274.3822 997.82739,1262.5 L 997.82739,822.875 1205.6369,822.875 1205.6369,937.4375 C 1205.6369,954.97779 1214.7081,970.11289 1232.8297,982.84375 1250.9514,995.57457 1273.2719,1001.9375 1299.8504,1001.9375 L 1762.5765,1001.9375 C 1789.155,1001.9375 1811.5166,995.57457 1829.6383,982.84375 1847.76,970.11289 1856.7901,954.97779 1856.7901,937.4375 L 1856.7901,610.6875 C 1856.7901,593.14721 1847.76,578.01211 1829.6383,565.28125 1811.5166,552.5504 1789.155,546.1875 1762.5765,546.1875 L 1299.8504,546.1875 C 1273.2719,546.1875 1250.9514,552.5504 1232.8297,565.28125 1214.7081,578.01211 1205.6369,593.14721 1205.6369,610.6875 L 1205.6369,725.25 997.82739,725.25 997.82739,285.625 C 997.82739,274.30868 1005.5055,268.65625 1020.8083,268.65625 L 1205.6369,268.65625 1205.6369,383.21875 C 1205.6369,401.89067 1214.7081,417.58164 1232.8297,430.3125 1250.9514,443.04336 1273.2719,449.4375 1299.8504,449.4375 L 1762.5765,449.4375 C 1789.155,449.4375 1811.5166,443.04336 1829.6383,430.3125 1847.76,417.58164 1856.7901,401.89067 1856.7901,383.21875 L 1856.7901,58.15625 C 1856.7901,39.48433 1847.76,23.793358 1829.6383,11.0625 1811.5166,-1.6683577 1789.155,-8.03125 1762.5765,-8.03125 L 1299.8504,-8.03125 z M 1419.5394,105.65625 1592.7957,105.65625 C 1602.6952,105.65625 1610.8398,108.00819 1617.2897,112.75 1623.7391,117.49183 1626.9809,123.15432 1626.9809,129.6875 L 1626.9809,190.53125 1626.9809,251.375 C 1626.9809,257.9082 1623.7391,263.5394 1617.2897,268.28125 1610.8398,273.02305 1602.6952,275.40625 1592.7957,275.40625 L 1419.5394,275.40625 C 1410.2395,275.40625 1402.2043,273.02305 1395.4544,268.28125 1388.7046,263.5394 1385.3542,257.9082 1385.3542,251.375 L 1385.3542,129.6875 C 1385.3542,123.15432 1388.7046,117.49183 1395.4544,112.75 1402.2043,108.00819 1410.2395,105.65625 1419.5394,105.65625 z M 1445.5053,683.9375 1618.7618,683.9375 C 1628.6613,683.9375 1636.8058,686.28944 1643.2557,691.03125 1649.7052,695.77308 1652.9469,701.43557 1652.9469,707.96875 L 1652.9469,768.8125 1652.9469,829.65625 C 1652.9469,836.18945 1649.7052,841.82065 1643.2557,846.5625 1636.8058,851.3043 1628.6613,853.6875 1618.7618,853.6875 L 1445.5053,853.6875 C 1436.2055,853.6875 1428.1703,851.3043 1421.4202,846.5625 1414.6706,841.82065 1411.3201,836.18945 1411.3201,829.65625 L 1411.3201,707.96875 C 1411.3201,701.43557 1414.6706,695.77308 1421.4202,691.03125 1428.1703,686.28944 1436.2055,683.9375 1445.5053,683.9375 z M 1433.9332,1241.5 1607.1895,1241.5 C 1617.0889,1241.5 1625.2335,1243.8519 1631.6834,1248.5938 1638.1329,1253.3356 1641.3747,1258.998 1641.3747,1265.5312 L 1641.3747,1326.375 1641.3747,1387.2188 C 1641.3747,1393.7519 1638.1329,1399.3831 1631.6834,1404.125 1625.2335,1408.8668 1617.0889,1411.25 1607.1895,1411.25 L 1433.9332,1411.25 C 1424.6334,1411.25 1416.598,1408.8668 1409.8481,1404.125 1403.0984,1399.3831 1399.748,1393.7519 1399.748,1387.2188 L 1399.748,1265.5312 C 1399.748,1258.998 1403.0984,1253.3356 1409.8481,1248.5938 1416.598,1243.8519 1424.6334,1241.5 1433.9332,1241.5 z"
       id="path2990"
       inkscape:connector-curvature="0" />
  </g>
</svg>
