<?xml version="1.0" encoding="UTF-8" standalone="no"?>
<!-- Created with Inkscape (http://www.inkscape.org/) -->

<svg
   xmlns:dc="http://purl.org/dc/elements/1.1/"
   xmlns:cc="http://creativecommons.org/ns#"
   xmlns:rdf="http://www.w3.org/1999/02/22-rdf-syntax-ns#"
   xmlns:svg="http://www.w3.org/2000/svg"
   xmlns="http://www.w3.org/2000/svg"
   xmlns:sodipodi="http://sodipodi.sourceforge.net/DTD/sodipodi-0.dtd"
   xmlns:inkscape="http://www.inkscape.org/namespaces/inkscape"
   width="210mm"
   height="297mm"
   id="svg2"
   version="1.1"
   inkscape:version="0.48.4 r9939"
   sodipodi:docname="newSheet.svg">
  <defs
     id="defs4" />
  <sodipodi:namedview
     id="base"
     pagecolor="#ffffff"
     bordercolor="#666666"
     borderopacity="1.0"
     inkscape:pageopacity="0.0"
     inkscape:pageshadow="2"
     inkscape:zoom="0.24748737"
     inkscape:cx="827.52906"
     inkscape:cy="345.35745"
     inkscape:document-units="px"
     inkscape:current-layer="layer1"
     showgrid="false"
     inkscape:window-width="1366"
     inkscape:window-height="714"
     inkscape:window-x="-4"
     inkscape:window-y="-4"
     inkscape:window-maximized="1"
     showborder="false" />
  <metadata
     id="metadata7">
    <rdf:RDF>
      <cc:Work
         rdf:about="">
        <dc:format>image/svg+xml</dc:format>
        <dc:type
           rdf:resource="http://purl.org/dc/dcmitype/StillImage" />
        <dc:title></dc:title>
      </cc:Work>
    </rdf:RDF>
  </metadata>
  <g
     inkscape:label="Ebene 1"
     inkscape:groupmode="layer"
     id="layer1">
    <path
       d="M 0,307 V 1229 Q 0,1292 24.5,1348.5 49,1405 90,1446 131,1487 187.5,1511.5 244,1536 307,1536 H 1382 Q 1386,1536 1392.5,1535 1399,1534 1403,1534 L 1212,1343 H 307 Q 260,1343 226.5,1309.5 193,1276 193,1229 V 307 Q 193,260 226.5,226.5 260,193 307,193 H 1382 Q 1429,193 1463,226.5 1497,260 1497,307 V 752 L 1690,944 V 307 Q 1690,244 1665,188.5 1640,133 1598,91 1556,49 1501,24.5 1446,0 1382,0 H 307 Q 244,0 187.5,24.5 131,49 90,91 49,133 24.5,188.5 0,244 0,307 z"
       id="path3153" />
    <path
       d="M 1501,1415 1593,1509 Q 1622,1538 1661,1538 1700,1538 1726,1509 L 1772,1464 1817,1419 Q 1844,1390 1844.5,1352.5 1845,1315 1817,1286 L 1722,1194 z"
       id="path3145" />
    <path
       d="M 1180.3123,329.48162 984.72694,329.48162 Q 967.87492,329.48162 956.38496,340.04392 944.89494,350.60622 944.89494,366.09762 L 944.89494,428.53282 866.76292,428.53282 Q 838.67625,428.53282 818.76025,447.31032 798.84425,466.08772 798.84425,491.90672 L 798.84425,735.07512 709.98823,735.07512 709.98823,671.70112 Q 709.98823,657.14862 699.00889,646.58622 688.02955,636.02392 671.17756,636.02392 L 474.57085,636.02392 Q 458.74018,636.02392 447.25018,646.58622 435.76017,657.14862 435.76017,671.70112 L 435.76017,852.43432 Q 435.76017,866.98692 447.25018,877.54922 458.74018,888.11152 474.57085,888.11152 L 671.17756,888.11152 Q 688.02955,888.11152 699.00889,877.54922 709.98823,866.98692 709.98823,852.43432 L 709.98823,789.06042 798.84425,789.06042 798.84425,1032.2286 Q 798.84425,1058.0477 818.50491,1076.8252 838.16558,1095.6026 866.76292,1095.6026 L 944.89494,1095.6026 944.89494,1158.9767 Q 944.89494,1173.5292 956.38496,1184.0915 967.87492,1194.6538 984.72694,1194.6538 L 1180.3123,1194.6538 Q 1197.1643,1194.6538 1208.6543,1184.0915 1220.1443,1173.5292 1220.1443,1158.9767 L 1220.1443,978.24342 Q 1220.1443,962.75202 1208.6543,952.89382 1197.1643,943.03562 1180.3123,943.03562 L 984.72694,943.03562 Q 967.87492,943.03562 956.38496,953.12852 944.89494,963.22152 944.89494,978.24342 L 944.89494,1042.0869 866.76292,1042.0869 Q 857.57092,1042.0869 857.06025,1032.2286 L 857.06025,789.06042 944.89494,789.06042 944.89494,852.43432 Q 944.89494,866.98692 956.38496,877.54922 967.87492,888.11152 984.72694,888.11152 L 1180.3123,888.11152 Q 1197.1643,888.11152 1208.6543,877.54922 1220.1443,866.98692 1220.1443,852.43432 L 1220.1443,671.70112 Q 1220.1443,657.14862 1208.6543,646.58622 1197.1643,636.02392 1180.3123,636.02392 L 984.72694,636.02392 Q 967.87492,636.02392 956.38496,646.58622 944.89494,657.14862 944.89494,671.70112 L 944.89494,735.07512 857.06025,735.07512 857.06025,491.90672 Q 857.06025,482.51802 866.76292,482.51802 L 944.89494,482.51802 944.89494,545.89202 Q 944.89494,561.38342 956.38496,571.94572 967.87492,582.50812 984.72694,582.50812 L 1180.3123,582.50812 Q 1197.1643,582.50812 1208.6543,571.94572 1220.1443,561.38342 1220.1443,545.89202 L 1220.1443,366.09762 Q 1220.1443,350.60622 1208.6543,340.04392 1197.1643,329.48162 1180.3123,329.48162 z"
       id="path3067"
       inkscape:connector-curvature="0" />
  </g>
</svg>
