<?xml version="1.0" encoding="UTF-8" standalone="no"?>
<!-- Created with Inkscape (http://www.inkscape.org/) -->

<svg
   xmlns:dc="http://purl.org/dc/elements/1.1/"
   xmlns:cc="http://creativecommons.org/ns#"
   xmlns:rdf="http://www.w3.org/1999/02/22-rdf-syntax-ns#"
   xmlns:svg="http://www.w3.org/2000/svg"
   xmlns="http://www.w3.org/2000/svg"
   xmlns:sodipodi="http://sodipodi.sourceforge.net/DTD/sodipodi-0.dtd"
   xmlns:inkscape="http://www.inkscape.org/namespaces/inkscape"
   width="210mm"
   height="297mm"
   id="svg2"
   version="1.1"
   inkscape:version="0.48.4 r9939"
   sodipodi:docname="toggleview2.svg">
  <defs
     id="defs4" />
  <sodipodi:namedview
     id="base"
     pagecolor="#ffffff"
     bordercolor="#666666"
     borderopacity="1.0"
     inkscape:pageopacity="0.0"
     inkscape:pageshadow="2"
     inkscape:zoom="0.16"
     inkscape:cx="-515.81"
     inkscape:cy="-242.82125"
     inkscape:document-units="px"
     inkscape:current-layer="layer1"
     showgrid="false"
     inkscape:window-width="1366"
     inkscape:window-height="714"
     inkscape:window-x="-4"
     inkscape:window-y="-4"
     inkscape:window-maximized="1"
     showborder="false">
    <inkscape:grid
       type="xygrid"
       id="grid3246"
       empspacing="5"
       visible="true"
       enabled="true"
       snapvisiblegridlinesonly="true" />
  </sodipodi:namedview>
  <metadata
     id="metadata7">
    <rdf:RDF>
      <cc:Work
         rdf:about="">
        <dc:format>image/svg+xml</dc:format>
        <dc:type
           rdf:resource="http://purl.org/dc/dcmitype/StillImage" />
        <dc:title></dc:title>
      </cc:Work>
    </rdf:RDF>
  </metadata>
  <g
     inkscape:label="Ebene 1"
     inkscape:groupmode="layer"
     id="layer1">
    <path
       d="M 716.91308,541.01846 727.78308,517.70786 Q 775.90068,414.51926 853.48725,339.82976 931.0739,265.14016 1035.2326,230.84236 1139.3912,196.54456 1267.8237,208.37796 1396.2565,220.21136 1547.2677,289.11546 L 1614.2265,145.52186 Q 1630.7488,110.08966 1652.0882,110.58056 1673.4276,111.07146 1687.0294,148.44216 L 1817.3663,505.12176 Q 1826.9033,528.48856 1814.6871,553.06326 1803.3824,577.30636 1779.9737,585.31039 L 1422.9624,714.73565 Q 1385.5917,728.33749 1371.4989,712.30609 1357.4061,696.27482 1373.9284,660.84262 L 1449.2934,499.22216 Q 1320.6185,439.22006 1210.2496,420.29576 1099.8807,401.37166 1011.1301,415.61016 922.3796,429.84866 855.01861,474.49456 787.65778,519.14046 744.37738,585.98859 734.06458,601.61281 717.28088,593.78643 701.74048,586.53983 707.08037,568.59666 711.26078,553.13996 716.91308,541.01846 z"
       id="path3159"
       inkscape:connector-curvature="0" />
    <path
       d="M 1509.0229,832.25593 1498.1529,855.56663 Q 1450.0354,958.7551 1372.4488,1033.4447 1294.8621,1108.1342 1190.7035,1142.4321 1086.5448,1176.7299 958.1122,1164.8965 829.67948,1153.0631 678.66827,1084.1591 L 611.70948,1227.7527 Q 595.18718,1263.1849 573.84788,1262.694 552.50838,1262.203 538.90657,1224.8323 L 408.56968,868.15276 Q 399.03268,844.78596 411.24887,820.21119 422.55368,795.96808 445.96228,787.96408 L 802.97347,658.53881 Q 840.34428,644.93688 854.43713,660.96829 868.52986,676.99965 852.00756,712.43184 L 776.64268,874.05237 Q 905.31753,934.05443 1015.6864,952.9786 1126.0553,971.90275 1214.8059,957.66423 1303.5564,943.42567 1370.9174,898.77988 1438.2783,854.13406 1481.5586,787.28586 1491.8714,771.66158 1508.6552,779.48798 1524.1956,786.73457 1518.8557,804.67778 1514.6757,820.13455 1509.0229,832.25593 z"
       id="path3159-7"
       inkscape:connector-curvature="0" />
    <path
       inkscape:connector-curvature="0"
       d="M 5.893675,1226.4789 5.893675,304.47886 C 5.893675,262.47886 14.743775,222.64556 32.443875,184.97886 50.143975,147.31216 73.804375,114.81216 103.42498,87.478856 133.04558,60.145556 168.26527,38.312156 209.08388,21.978856 249.90258,5.6455563 293.06918,-2.5211437 338.58378,-2.5211437 L 886.5413,-2.5211437 C 882.20657,18.145556 880.0392,39.145556 880.0392,60.478856 L 880.0392,112.47886 C 761.55678,125.81216 649.57638,151.81216 544.09808,190.47886 L 338.58378,190.47886 C 304.62847,190.47886 275.54967,201.64556 251.34748,223.97886 227.14528,246.31216 215.04417,273.14556 215.04417,304.47886 L 215.04417,1226.4789 C 215.04417,1257.8122 227.14528,1284.6456 251.34748,1306.9789 275.54967,1329.3122 304.62847,1340.4789 338.58378,1340.4789 L 1503.5411,1340.4789 C 1537.4964,1340.4789 1566.7558,1329.3122 1591.3193,1306.9789 1615.8828,1284.6456 1628.1645,1257.8122 1628.1645,1226.4789 L 1628.1645,1115.4789 C 1639.7238,1108.8122 1651.1024,1101.6456 1662.3004,1093.9789 1673.4985,1086.3122 1685.2384,1077.1456 1697.5201,1066.4789 L 1837.315,939.47891 1837.315,1226.4789 C 1837.315,1268.4789 1828.2843,1307.9789 1810.2229,1344.9789 1792.1616,1381.9789 1767.9594,1414.4789 1737.6163,1442.4789 1707.2732,1470.4789 1672.2342,1492.6456 1632.4992,1508.9789 1592.7642,1525.3122 1549.7782,1533.4789 1503.5411,1533.4789 L 338.58378,1533.4789 C 293.06918,1533.4789 249.90258,1525.3122 209.08388,1508.9789 168.26527,1492.6456 133.04558,1470.4789 103.42498,1442.4789 73.804375,1414.4789 50.143975,1381.9789 32.443875,1344.9789 14.743775,1307.9789 5.893675,1268.4789 5.893675,1226.4789 z"
       id="path3163"
       sodipodi:nodetypes="sssssscsccssssssssscsccssssssssss" />
  </g>
</svg>
