<?xml version="1.0" encoding="UTF-8" standalone="no"?>
<!-- Created with Inkscape (http://www.inkscape.org/) -->

<svg
   xmlns:dc="http://purl.org/dc/elements/1.1/"
   xmlns:cc="http://creativecommons.org/ns#"
   xmlns:rdf="http://www.w3.org/1999/02/22-rdf-syntax-ns#"
   xmlns:svg="http://www.w3.org/2000/svg"
   xmlns="http://www.w3.org/2000/svg"
   xmlns:sodipodi="http://sodipodi.sourceforge.net/DTD/sodipodi-0.dtd"
   xmlns:inkscape="http://www.inkscape.org/namespaces/inkscape"
   width="210mm"
   height="297mm"
   id="svg2"
   version="1.1"
   inkscape:version="0.48.4 r9939"
   sodipodi:docname="VerticalAlignBottom.svg">
  <defs
     id="defs4" />
  <sodipodi:namedview
     id="base"
     pagecolor="#ffffff"
     bordercolor="#666666"
     borderopacity="1.0"
     inkscape:pageopacity="0.0"
     inkscape:pageshadow="2"
     inkscape:zoom="0.24748737"
     inkscape:cx="322.45278"
     inkscape:cy="345.35745"
     inkscape:document-units="px"
     inkscape:current-layer="layer1"
     showgrid="false"
     inkscape:window-width="1366"
     inkscape:window-height="714"
     inkscape:window-x="-4"
     inkscape:window-y="-4"
     inkscape:window-maximized="1"
     showborder="false"
     showguides="true"
     inkscape:guide-bbox="true">
    <sodipodi:guide
       orientation="0,1"
       position="913.17791,-476.79201"
       id="guide2984" />
    <sodipodi:guide
       orientation="-0.70710678,0.70710678"
       position="-1604.1223,1276.8328"
       id="guide2986" />
    <sodipodi:guide
       orientation="1,0"
       position="1838.4777,783.87839"
       id="guide2988" />
    <sodipodi:guide
       orientation="1,0"
       position="0,989.94951"
       id="guide2990" />
    <sodipodi:guide
       orientation="0,1"
       position="303.04577,1050.5587"
       id="guide2992" />
  </sodipodi:namedview>
  <metadata
     id="metadata7">
    <rdf:RDF>
      <cc:Work
         rdf:about="">
        <dc:format>image/svg+xml</dc:format>
        <dc:type
           rdf:resource="http://purl.org/dc/dcmitype/StillImage" />
        <dc:title></dc:title>
      </cc:Work>
    </rdf:RDF>
  </metadata>
  <g
     inkscape:label="Ebene 1"
     inkscape:groupmode="layer"
     id="layer1">
    <path
       d="M 173.78427,821.01984 173.78427,706.01984 Q 173.78427,675.01984 211.07501,653.01984 248.36574,631.01984 299.74409,631.01984 L 1572.6013,631.01984 Q 1627.2944,631.01984 1664.5851,653.51984 1701.8758,676.01984 1701.8758,706.01984 L 1701.8758,821.01984 Q 1701.8758,854.01984 1664.5851,876.51984 1627.2944,899.01984 1572.6013,899.01984 L 299.74409,899.01984 Q 248.36574,899.01984 211.07501,876.51984 173.78427,854.01984 173.78427,821.01984 z"
       id="path3004"
       inkscape:connector-curvature="0" />
    <path
       d="M 912.74366,989.7995 Q 928.74366,989.7995 947.74366,1003.7995 L 1162.7437,1220.7995 Q 1185.7437,1243.7995 1179.7437,1258.7995 1173.7437,1273.7995 1140.7437,1273.7995 L 988.74369,1273.7995 988.74369,1488.7995 Q 988.74369,1504.7995 977.74366,1516.2995 966.74366,1527.7995 949.74366,1527.7995 L 874.74366,1527.7995 Q 858.74366,1527.7995 847.24366,1516.7995 835.74366,1505.7995 835.74366,1488.7995 L 835.74366,1273.7995 681.74366,1273.7995 Q 650.74366,1273.7995 643.74366,1258.7995 636.74366,1243.7995 658.74366,1220.7995 L 876.74366,1003.7995 Q 894.74366,989.7995 912.74366,989.7995 z"
       id="path7"
       inkscape:connector-curvature="0" />
    <path
       d="M 912.74364,540.24017 Q 928.74364,540.24017 947.74364,526.24017 L 1162.7436,309.24017 Q 1185.7436,286.24017 1179.7436,271.24017 1173.7436,256.24017 1140.7436,256.24017 L 988.74364,256.24017 988.74364,41.240173 Q 988.74364,25.240173 977.74364,13.740173 966.74364,2.2401733 949.74364,2.2401733 L 874.74364,2.2401733 Q 858.74364,2.2401733 847.24364,13.240173 835.74364,24.240173 835.74364,41.240173 L 835.74364,256.24017 681.74366,256.24017 Q 650.74366,256.24017 643.74366,271.24017 636.74366,286.24017 658.74366,309.24017 L 876.74364,526.24017 Q 894.74364,540.24017 912.74364,540.24017 z"
       id="path7-7"
       inkscape:connector-curvature="0" />
  </g>
</svg>
