<?xml version="1.0" encoding="UTF-8" standalone="no"?>
<!-- Created with Inkscape (http://www.inkscape.org/) -->

<svg
   xmlns:dc="http://purl.org/dc/elements/1.1/"
   xmlns:cc="http://creativecommons.org/ns#"
   xmlns:rdf="http://www.w3.org/1999/02/22-rdf-syntax-ns#"
   xmlns:svg="http://www.w3.org/2000/svg"
   xmlns="http://www.w3.org/2000/svg"
   xmlns:sodipodi="http://sodipodi.sourceforge.net/DTD/sodipodi-0.dtd"
   xmlns:inkscape="http://www.inkscape.org/namespaces/inkscape"
   width="210mm"
   height="297mm"
   id="svg2"
   version="1.1"
   inkscape:version="0.48.4 r9939"
   sodipodi:docname="viewview.svg">
  <defs
     id="defs4" />
  <sodipodi:namedview
     id="base"
     pagecolor="#ffffff"
     bordercolor="#666666"
     borderopacity="1.0"
     inkscape:pageopacity="0.0"
     inkscape:pageshadow="2"
     inkscape:zoom="0.24748737"
     inkscape:cx="827.52906"
     inkscape:cy="345.35745"
     inkscape:document-units="px"
     inkscape:current-layer="layer1"
     showgrid="false"
     inkscape:window-width="1366"
     inkscape:window-height="714"
     inkscape:window-x="-4"
     inkscape:window-y="-4"
     inkscape:window-maximized="1"
     showborder="false" />
  <metadata
     id="metadata7">
    <rdf:RDF>
      <cc:Work
         rdf:about="">
        <dc:format>image/svg+xml</dc:format>
        <dc:type
           rdf:resource="http://purl.org/dc/dcmitype/StillImage" />
        <dc:title />
      </cc:Work>
    </rdf:RDF>
  </metadata>
  <g
     inkscape:label="Ebene 1"
     inkscape:groupmode="layer"
     id="layer1">
    <path
       d=" M0 115v1306q0 47 34 81t81 34h1614q47 0 80.5 -34t33.5 -81v-1306q0 -47 -33.5 -81t-80.5 -34h-1614q-47 0 -81 34t-34 81z M154 154h692v1153h-692v-1153z M999 154h691v1153h-691v-1153z "
       id="path2990" />
    <path
       d="m 378.4265,396.33361 v 83.21981 q 0,11.99914 2.71899,20.70819 2.71899,8.70905 6.70684,8.70905 h 204.10541 q 3.74615,0 6.46512,-8.70905 2.71901,-8.70905 2.71901,-20.70819 v -83.21981 q 0,-12.77327 -2.71901,-21.48233 -2.71897,-8.70905 -6.46512,-8.70905 H 387.85233 q -3.98785,0 -6.70684,8.70905 -2.71899,8.70906 -2.71899,21.48233 z"
       id="path2998"
       inkscape:connector-curvature="0" />
    <path
       d="m 267.94928,671.22063 v 84.38102 q 0,11.99914 2.66966,20.51466 2.66966,8.51551 6.58516,8.51551 h 200.40243 q 3.67818,0 6.34783,-8.70905 2.66968,-8.70905 2.66968,-20.32112 v -84.38102 q 0,-11.99913 -2.66968,-20.51465 -2.66965,-8.51551 -6.34783,-8.51551 H 277.2041 q -3.9155,0 -6.58516,8.70905 -2.66966,8.70905 -2.66966,20.32111 z"
       id="path2996"
       inkscape:connector-curvature="0" />
    <path
       d="m 370.99504,955.26887 v 83.99393 q 0,11.9992 2.22569,20.7082 2.2257,8.7091 5.49006,8.7091 h 167.07562 q 3.0665,0 5.29219,-8.7091 2.22571,-8.709 2.22571,-20.7082 v -83.99393 q 0,-11.99913 -2.22571,-20.70818 -2.22569,-8.70905 -5.29219,-8.70905 H 378.71079 q -3.26436,0 -5.49006,8.70905 -2.22569,8.70905 -2.22569,20.70818 z"
       id="path2992"
       inkscape:connector-curvature="0" />
    <path
       d="m 1270.9625,360.44192 v 83.21981 q 0,11.99914 3.4096,20.70819 3.4096,8.70905 8.4103,8.70905 h 255.9471 q 4.6976,0 8.1073,-8.70905 3.4096,-8.70905 3.4096,-20.70819 v -83.21981 q 0,-12.77327 -3.4096,-21.48233 -3.4097,-8.70905 -8.1073,-8.70905 h -255.9471 q -5.0007,0 -8.4103,8.70905 -3.4096,8.70906 -3.4096,21.48233 z"
       id="path2998-1"
       inkscape:connector-curvature="0" />
    <path
       d="m 1311.9472,647.32894 v 84.38102 q 0,11.99914 2.4723,20.51466 2.4724,8.51551 6.0985,8.51551 h 185.5905 q 3.4063,0 5.8787,-8.70905 2.4723,-8.70905 2.4723,-20.32112 v -84.38102 q 0,-11.99913 -2.4723,-20.51465 -2.4724,-8.51551 -5.8787,-8.51551 H 1320.518 q -3.6261,0 -6.0985,8.70905 -2.4723,8.70905 -2.4723,20.32111 z"
       id="path2996-7"
       inkscape:connector-curvature="0" />
    <path
       d="m 1173.531,1029.3772 v 83.9939 q 0,11.9992 3.1629,20.7082 3.163,8.7091 7.802,8.7091 h 237.4322 q 4.3579,0 7.5208,-8.7091 3.163,-8.709 3.163,-20.7082 v -83.9939 q 0,-11.9991 -3.163,-20.7082 -3.1629,-8.70905 -7.5208,-8.70905 h -237.4322 q -4.639,0 -7.802,8.70905 -3.1629,8.7091 -3.1629,20.7082 z"
       id="path2992-4"
       inkscape:connector-curvature="0" />
  </g>
</svg>
