<?xml version="1.0" encoding="UTF-8" standalone="no"?>
<!-- Created with Inkscape (http://www.inkscape.org/) -->

<svg
   xmlns:dc="http://purl.org/dc/elements/1.1/"
   xmlns:cc="http://creativecommons.org/ns#"
   xmlns:rdf="http://www.w3.org/1999/02/22-rdf-syntax-ns#"
   xmlns:svg="http://www.w3.org/2000/svg"
   xmlns="http://www.w3.org/2000/svg"
   xmlns:sodipodi="http://sodipodi.sourceforge.net/DTD/sodipodi-0.dtd"
   xmlns:inkscape="http://www.inkscape.org/namespaces/inkscape"
   width="468px"
   height="60px"
   id="svg2988"
   version="1.1"
   inkscape:version="0.48.4 r9939"
   sodipodi:docname="Loading.svg">
  <defs
     id="defs2990" />
  <sodipodi:namedview
     id="base"
     pagecolor="#ffffff"
     bordercolor="#666666"
     borderopacity="1.0"
     inkscape:pageopacity="0.0"
     inkscape:pageshadow="2"
     inkscape:zoom="1.2"
     inkscape:cx="234"
     inkscape:cy="30"
     inkscape:document-units="px"
     inkscape:current-layer="text2996"
     showgrid="false"
     inkscape:window-width="1920"
     inkscape:window-height="1032"
     inkscape:window-x="-4"
     inkscape:window-y="-4"
     inkscape:window-maximized="1" />
  <metadata
     id="metadata2993">
    <rdf:RDF>
      <cc:Work
         rdf:about="">
        <dc:format>image/svg+xml</dc:format>
        <dc:type
           rdf:resource="http://purl.org/dc/dcmitype/StillImage" />
        <dc:title></dc:title>
      </cc:Work>
    </rdf:RDF>
  </metadata>
  <g
     id="layer1"
     inkscape:label="Layer 1"
     inkscape:groupmode="layer">
    <g
       transform="scale(1.2511061,0.7992927)"
       style="font-size:50.04424286px;font-style:normal;font-variant:normal;font-weight:normal;font-stretch:normal;text-align:start;line-height:125%;letter-spacing:0px;word-spacing:0px;writing-mode:lr-tb;text-anchor:start;fill:#000000;fill-opacity:1;stroke:none;font-family:DejaVu Sans;-inkscape-font-specification:DejaVu Sans"
       id="text2996">
      <g
         id="g3021"
         transform="translate(13.987623,-1.0425884)"
         style="fill:#000080"
         inkscape:export-filename="S:\Programming\Limada\src\trunk\Limaki.View.Resources\Limaki.Iconeria\svg\loading.png"
         inkscape:export-xdpi="98.870003"
         inkscape:export-ydpi="98.870003">
        <path
           id="path3001"
           d="m 68.288528,10.979764 4.496163,0 0,38.021895 -4.496163,0 z"
           inkscape:connector-curvature="0"
           style="fill:#000080" />
        <path
           id="path3003"
           d="m 92.773066,24.785915 c -2.410999,2.4e-5 -4.316979,0.940796 -5.717946,2.822319 -1.400986,1.881566 -2.101475,4.459526 -2.101467,7.733888 -8e-6,3.27439 0.696408,5.85235 2.089249,7.733889 1.392822,1.88155 3.302875,2.822322 5.730164,2.822319 2.394677,3e-6 4.292512,-0.944842 5.69351,-2.834537 1.400955,-1.889684 2.101444,-4.463571 2.101464,-7.721671 -2e-5,-3.241781 -0.700509,-5.811596 -2.101464,-7.709452 -1.400998,-1.897813 -3.298833,-2.846731 -5.69351,-2.846755 z m 0,-3.811964 c 3.909687,2.8e-5 6.980432,1.270681 9.212244,3.811964 2.23177,2.541331 3.34766,6.060063 3.34769,10.556207 -3e-5,4.479882 -1.11592,7.994541 -3.34769,10.54399 -2.231812,2.549455 -5.302557,3.824181 -9.212244,3.824182 -3.926009,-10e-7 -7.000827,-1.274727 -9.224464,-3.824182 -2.22365,-2.549449 -3.335471,-6.064108 -3.335468,-10.54399 -3e-6,-4.496144 1.111818,-8.014876 3.335468,-10.556207 2.223637,-2.541283 5.298455,-3.811936 9.224464,-3.811964 z"
           inkscape:connector-curvature="0"
           style="fill:#000080" />
        <path
           id="path3005"
           d="m 125.19919,35.24438 c -3.63278,1.3e-5 -6.14965,0.415419 -7.55062,1.246219 -1.40098,0.830824 -2.10147,2.248091 -2.10146,4.251805 -1e-5,1.596471 0.52535,2.863051 1.5761,3.799746 1.05072,0.936704 2.4802,1.405054 4.28846,1.405051 2.49242,3e-6 4.49207,-0.883752 5.99895,-2.651269 1.50685,-1.767506 2.26028,-4.1174 2.2603,-7.04969 l 0,-1.001862 z m 8.96789,-1.857111 0,15.61439 -4.49616,0 0,-4.154063 c -1.02632,1.661628 -2.30512,2.887483 -3.8364,3.677568 -1.53132,0.790086 -3.40472,1.185129 -5.6202,1.18513 -2.80197,-10e-7 -5.02968,-0.786014 -6.68316,-2.358042 -1.65348,-1.572025 -2.48022,-3.677562 -2.48022,-6.31662 0,-3.078882 1.03037,-5.400268 3.09112,-6.964164 2.06073,-1.563866 5.13555,-2.345807 9.22446,-2.345824 l 6.3044,0 0,-0.439842 c -2e-5,-2.068867 -0.68015,-3.669401 -2.04038,-4.801608 -1.36027,-1.132163 -3.27032,-1.698255 -5.73016,-1.698279 -1.5639,2.4e-5 -3.08705,0.187364 -4.56947,0.56202 -1.48244,0.374704 -2.90785,0.936723 -4.27624,1.686061 l 0,-4.154063 c 1.64533,-0.635301 3.24179,-1.111796 4.78939,-1.429486 1.54758,-0.317636 3.05444,-0.476468 4.5206,-0.476496 3.95856,2.8e-5 6.91527,1.026325 8.87014,3.078894 1.95483,2.052619 2.93226,5.16409 2.93228,9.334424 z"
           inkscape:connector-curvature="0"
           style="fill:#000080" />
        <path
           id="path3007"
           d="m 161.46172,25.787777 0,-14.808013 4.49616,0 0,38.021895 -4.49616,0 0,-4.105191 c -0.94487,1.629046 -2.13814,2.838611 -3.57982,3.628696 -1.44172,0.790086 -3.17258,1.185129 -5.19258,1.18513 -3.30697,-10e-7 -5.99897,-1.319526 -8.07599,-3.958578 -2.07703,-2.639046 -3.11555,-6.108907 -3.11555,-10.409594 0,-4.300659 1.03852,-7.77052 3.11555,-10.409593 2.07702,-2.639025 4.76902,-3.95855 8.07599,-3.958578 2.02,2.8e-5 3.75086,0.395071 5.19258,1.18513 1.44168,0.790112 2.63495,1.999677 3.57982,3.628696 z m -15.32116,9.554345 c -1e-5,3.306971 0.68012,5.901221 2.04038,7.78276 1.36024,1.88155 3.22957,2.822322 5.60798,2.822319 2.37839,3e-6 4.25179,-0.940769 5.62021,-2.822319 1.36837,-1.881539 2.05257,-4.475789 2.05259,-7.78276 -2e-5,-3.306943 -0.68422,-5.901193 -2.05259,-7.782759 -1.36842,-1.881523 -3.24182,-2.822295 -5.62021,-2.822319 -2.37841,2.4e-5 -4.24774,0.940796 -5.60798,2.822319 -1.36026,1.881566 -2.04039,4.475816 -2.04038,7.782759 z"
           inkscape:connector-curvature="0"
           style="fill:#000080" />
        <path
           id="path3009"
           d="m 175.219,21.633714 4.49616,0 0,27.367945 -4.49616,0 z m 0,-10.65395 4.49616,0 0,5.69351 -4.49616,0 z"
           inkscape:connector-curvature="0"
           style="fill:#000080" />
        <path
           id="path3011"
           d="m 211.84806,32.48315 0,16.518509 -4.49616,0 0,-16.371895 c -2e-5,-2.590162 -0.50503,-4.528723 -1.51501,-5.815689 -1.01003,-1.286921 -2.52504,-1.930393 -4.54504,-1.930417 -2.42729,2.4e-5 -4.34141,0.773819 -5.74238,2.321388 -1.40098,1.547612 -2.10147,3.657223 -2.10146,6.328837 l 0,15.467776 -4.5206,0 0,-27.367945 4.5206,0 0,4.251806 c 1.07515,-1.64531 2.34174,-2.875237 3.79974,-3.689786 1.45798,-0.814494 3.13997,-1.221755 5.04597,-1.221783 3.14403,2.8e-5 5.52243,0.973381 7.13521,2.920062 1.61273,1.946731 2.4191,4.809774 2.41913,8.589137 z"
           inkscape:connector-curvature="0"
           style="fill:#000080" />
        <path
           id="path3013"
           d="m 238.87391,35.000023 c -2e-5,-3.258071 -0.67201,-5.783088 -2.01594,-7.575056 -1.34399,-1.791926 -3.2296,-2.687899 -5.65686,-2.687923 -2.411,2.4e-5 -4.28847,0.895997 -5.63242,2.687923 -1.34397,1.791968 -2.01595,4.316985 -2.01594,7.575056 -1e-5,3.241809 0.67197,5.75868 2.01594,7.550621 1.34395,1.791953 3.22142,2.687927 5.63242,2.687923 2.42726,4e-6 4.31287,-0.89597 5.65686,-2.687923 1.34393,-1.791941 2.01592,-4.308812 2.01594,-7.550621 z m 4.49616,10.605079 c -3e-5,4.659066 -1.03447,8.124854 -3.10333,10.397376 -2.06891,2.272507 -5.2374,3.408764 -9.50547,3.408775 -1.58019,-1.1e-5 -3.07076,-0.118116 -4.47173,-0.354317 -1.40099,-0.236222 -2.76124,-0.598684 -4.08076,-1.087387 l 0,-4.373985 c 1.31952,0.716775 2.62276,1.246214 3.90971,1.588319 1.28693,0.342093 2.59831,0.513142 3.93414,0.513149 2.94856,-7e-6 5.15591,-0.76973 6.62207,-2.309171 1.46612,-1.539449 2.19919,-3.864908 2.19921,-6.976382 l 0,-2.223646 c -0.92858,1.612757 -2.11778,2.818249 -3.56761,3.616479 -1.44987,0.798232 -3.1848,1.197347 -5.2048,1.197347 -3.35584,0 -6.06005,-1.278798 -8.11264,-3.836399 -2.0526,-2.557593 -3.07889,-5.946002 -3.07889,-10.165237 0,-4.235497 1.02629,-7.632051 3.07889,-10.189672 2.05259,-2.557573 4.7568,-3.836372 8.11264,-3.8364 2.02,2.8e-5 3.75493,0.399144 5.2048,1.197348 1.44983,0.798257 2.63903,2.003749 3.56761,3.616478 l 0,-4.154063 4.49616,0 z"
           inkscape:connector-curvature="0"
           style="fill:#000080" />
        <path
           id="path3015"
           d="m 269.19857,42.795 5.15593,0 0,6.206659 -5.15593,0 z"
           inkscape:connector-curvature="0"
           style="fill:#000080" />
        <path
           id="path3017"
           d="m 285.13063,42.795 5.15592,0 0,6.206659 -5.15592,0 z"
           inkscape:connector-curvature="0"
           style="fill:#000080" />
        <path
           id="path3019"
           d="m 301.06268,42.795 5.15593,0 0,6.206659 -5.15593,0 z"
           inkscape:connector-curvature="0"
           style="fill:#000080" />
      </g>
    </g>
  </g>
</svg>
