<?xml version="1.0" encoding="UTF-8" standalone="no"?>
<!-- Created with Inkscape (http://www.inkscape.org/) -->

<svg
   xmlns:dc="http://purl.org/dc/elements/1.1/"
   xmlns:cc="http://creativecommons.org/ns#"
   xmlns:rdf="http://www.w3.org/1999/02/22-rdf-syntax-ns#"
   xmlns:svg="http://www.w3.org/2000/svg"
   xmlns="http://www.w3.org/2000/svg"
   xmlns:sodipodi="http://sodipodi.sourceforge.net/DTD/sodipodi-0.dtd"
   xmlns:inkscape="http://www.inkscape.org/namespaces/inkscape"
   width="210mm"
   height="297mm"
   id="svg2"
   version="1.1"
   inkscape:version="0.48.4 r9939"
   sodipodi:docname="fullLayout.svg">
  <defs
     id="defs4" />
  <sodipodi:namedview
     id="base"
     pagecolor="#ffffff"
     bordercolor="#666666"
     borderopacity="1.0"
     inkscape:pageopacity="0.0"
     inkscape:pageshadow="2"
     inkscape:zoom="0.33685043"
     inkscape:cx="916.94835"
     inkscape:cy="169.11222"
     inkscape:document-units="px"
     inkscape:current-layer="layer1"
     showgrid="false"
     inkscape:window-width="1366"
     inkscape:window-height="714"
     inkscape:window-x="-4"
     inkscape:window-y="-4"
     inkscape:window-maximized="1"
     showborder="false"
     showguides="true"
     inkscape:guide-bbox="true">
    <sodipodi:guide
       orientation="1,0"
       position="-8.0812205,1252.5892"
       id="guide2999" />
    <sodipodi:guide
       orientation="0,1"
       position="222.23356,1058.6399"
       id="guide3001" />
    <sodipodi:guide
       orientation="1,0"
       position="1838.4777,945.50279"
       id="guide3003" />
    <sodipodi:guide
       orientation="0,1"
       position="1838.4777,-480.83262"
       id="guide3005" />
  </sodipodi:namedview>
  <metadata
     id="metadata7">
    <rdf:RDF>
      <cc:Work
         rdf:about="">
        <dc:format>image/svg+xml</dc:format>
        <dc:type
           rdf:resource="http://purl.org/dc/dcmitype/StillImage" />
        <dc:title />
      </cc:Work>
    </rdf:RDF>
  </metadata>
  <g
     inkscape:label="Ebene 1"
     inkscape:groupmode="layer"
     id="layer1">
    <path
       id="path2997-7"
       d="M 719.84622,619.62785 608.25808,619.62785 C 599.50607,619.62785 594.88696,624.08108 594.40073,632.98754 L 594.40073,962.52634 719.84622,962.52634 719.84622,876.64268 C 719.84622,863.49506 725.31623,852.14994 736.25624,842.6073 747.19625,833.06467 760.68894,828.29335 776.73429,828.29335 L 1056.0693,828.29335 C 1072.1146,828.29335 1085.6073,833.06467 1096.5473,842.6073 1107.4874,852.14994 1112.9574,863.49506 1112.9574,876.64268 L 1112.9574,1121.5701 C 1112.9574,1134.7178 1107.4874,1146.0629 1096.5473,1155.6056 1085.6073,1165.1481 1072.1146,1169.9194 1056.0693,1169.9194 L 776.73429,1169.9194 C 760.68894,1169.9194 747.19625,1165.1481 736.25624,1155.6056 725.31623,1146.0629 719.84622,1134.7178 719.84622,1121.5701 L 719.84622,1035.6865 594.40073,1035.6865 594.40073,1365.2253 C 594.40073,1373.7077 599.01985,1377.9489 608.25808,1377.9489 L 719.84622,1377.9489 719.84622,1292.0651 C 719.84622,1278.0693 725.31623,1266.3001 736.25624,1256.7574 747.19625,1247.2148 760.68894,1242.4435 776.73429,1242.4435 L 1056.0693,1242.4435 C 1072.1146,1242.4435 1085.6073,1247.2148 1096.5473,1256.7574 1107.4874,1266.3001 1112.9574,1278.0693 1112.9574,1292.0651 L 1112.9574,1535.7203 C 1112.9574,1549.7162 1107.4874,1561.4854 1096.5473,1571.028 1085.6073,1580.5706 1072.1146,1585.342 1056.0693,1585.342 L 776.73429,1585.342 C 760.68894,1585.342 747.19625,1580.5706 736.25624,1571.028 725.31623,1561.4854 719.84622,1549.7162 719.84622,1535.7203 L 719.84622,1451.109 608.25808,1451.109 C 581.51583,1451.109 558.66336,1442.6266 539.70067,1425.662 520.73798,1408.6973 511.25663,1388.5518 511.25663,1365.2253 L 511.25663,1035.6865 384.35248,1035.6865 384.35248,1121.5701 C 384.35248,1134.7178 379.12558,1146.0629 368.67179,1155.6056 358.218,1165.1481 344.96843,1169.9194 328.92308,1169.9194 L 48.129401,1169.9194 C 33.056494,1169.9194 20.050033,1165.1481 9.11002,1155.6056 -1.8299933,1146.0629 -7.3,1134.7178 -7.3,1121.5701 L -7.3,876.64268 C -7.3,863.49506 -1.8299933,852.14994 9.11002,842.6073 20.050033,833.06467 33.056494,828.29335 48.129401,828.29335 L 328.92308,828.29335 C 344.96843,828.29335 358.218,833.06467 368.67179,842.6073 379.12558,852.14994 384.35248,863.49506 384.35248,876.64268 L 384.35248,962.52634 511.25663,962.52634 511.25663,632.98754 C 511.25663,609.66111 520.61642,589.51556 539.336,572.55088 558.05558,555.58623 581.02961,547.1039 608.25808,547.1039 L 719.84622,547.1039 720.93933,460.87184 C 720.93933,447.72416 726.40934,436.37901 737.34935,426.83642 748.28936,417.29376 761.29583,412.52243 776.36874,412.52243 L 1057.1624,412.52243 C 1073.2077,412.52243 1086.4573,417.29376 1096.9111,426.83642 1107.3649,436.37901 1112.5918,447.72416 1112.5918,460.87184 L 1112.5918,546.75548 1239.496,546.75548 1239.496,217.2167 C 1239.496,193.89021 1248.8558,173.74465 1267.5754,156.78001 1286.2949,139.81531 1309.269,131.33295 1336.4975,131.33295 L 1448.0856,131.33295 1448.0856,45.449306 C 1448.0856,32.301689 1453.5556,20.95655 1464.4956,11.413889 1475.4356,1.8712963 1488.9283,-2.9 1504.9737,-2.9 L 1784.3087,-2.9 C 1800.354,-2.9 1813.8467,1.8712963 1824.7867,11.413889 1835.7267,20.95655 1841.1967,32.301689 1841.1967,45.449306 L 1841.1967,290.37676 C 1841.1967,304.37265 1835.7267,315.82382 1824.7867,324.73027 1813.8467,333.63673 1800.354,338.08996 1784.3087,338.08996 L 1504.9737,338.08996 C 1488.9283,338.08996 1475.4356,333.53069 1464.4956,324.41217 1453.5556,315.29365 1448.0856,303.9485 1448.0856,290.37676 L 1448.0856,203.85701 1336.4975,203.85701 C 1327.7454,203.85701 1323.1263,208.31024 1322.6401,217.2167 L 1322.6401,546.75548 1448.0856,546.75548 1448.0856,460.87184 C 1448.0856,447.72416 1453.5556,436.37901 1464.4956,426.83642 1475.4356,417.29376 1488.9283,412.52243 1504.9737,412.52243 L 1784.3087,412.52243 C 1800.354,412.52243 1813.8467,417.29376 1824.7867,426.83642 1835.7267,436.37901 1841.1967,447.72416 1841.1967,460.87184 L 1841.1967,705.79923 C 1841.1967,718.94691 1835.7267,730.29205 1824.7867,739.83464 1813.8467,749.3773 1800.354,754.14864 1784.3087,754.14864 L 1504.9737,754.14864 C 1488.9283,754.14864 1475.4356,749.3773 1464.4956,739.83464 1453.5556,730.29205 1448.0856,718.94691 1448.0856,705.79923 L 1448.0856,619.91558 1322.6401,619.91558 1322.6401,949.45437 C 1322.6401,957.93676 1327.2592,962.17795 1336.4975,962.17795 L 1448.0856,962.17795 1448.0856,876.29421 C 1448.0856,862.29839 1453.5556,850.52914 1464.4956,840.98648 1475.4356,831.44389 1488.9283,826.67259 1504.9737,826.67259 L 1784.3087,826.67259 C 1800.354,826.67259 1813.8467,831.44389 1824.7867,840.98648 1835.7267,850.52914 1841.1967,862.29839 1841.1967,876.29421 L 1841.1967,1119.9493 C 1841.1967,1133.9452 1835.7267,1145.7145 1824.7867,1155.2571 1813.8467,1164.7997 1800.354,1169.571 1784.3087,1169.571 L 1504.9737,1169.571 C 1488.9283,1169.571 1475.4356,1164.7997 1464.4956,1155.2571 1453.5556,1145.7145 1448.0856,1133.9452 1448.0856,1119.9493 L 1448.0856,1035.3381 1336.4975,1035.3381 C 1309.7552,1035.3381 1286.9027,1026.8557 1267.94,1009.8911 1248.9773,992.92641 1239.496,972.78086 1239.496,949.45437 L 1239.496,619.91558 1112.5918,619.91558 1112.5918,705.79923 C 1112.5918,718.94691 1107.3649,730.29205 1096.9111,739.83464 1086.4573,749.3773 1073.2077,754.14864 1057.1624,754.14864 L 776.36874,754.14864 C 761.29583,754.14864 748.28936,749.3773 737.34935,739.83464 726.40934,730.29205 720.93933,705.79923 720.93933,705.79923 z"
       inkscape:connector-curvature="0"
       sodipodi:nodetypes="cscccssssssssssssccsscsssssssssssscsssccssssssssssssccsssccsssssccssscsssssssssssscscccssssssssssssccsscsssssssssssscsssccssssscc" />
  </g>
</svg>
